<svg xmlns="http://www.w3.org/2000/svg" xmlns:xlink="http://www.w3.org/1999/xlink" width="417.477" height="95.578" viewBox="0 0 417.477 95.578"><defs><clipPath id="a"><rect width="74" height="36" transform="translate(737 65)" fill="#fff"/></clipPath></defs><g transform="translate(-431.261 -56.211)"><path d="M-157.812,20.178q-9.355-.113-13.751-2.254a15.684,15.684,0,0,1-3.381-2.2,16.539,16.539,0,0,1-3.043-3.381,17.969,17.969,0,0,1-2.2-4.508,17.939,17.939,0,0,1-.845-5.692A15.98,15.98,0,0,1-178.945-6.2a48.928,48.928,0,0,1,4.227-6.086,7.442,7.442,0,0,0,1.916-4.17q0-1.916-2.367-2.48a24.769,24.769,0,0,0-3.607-.9q-2.367-.451-6.424-.9V-34.6q2.592-.225,5.185-.507a18.315,18.315,0,0,0,4.847-1.183,4.07,4.07,0,0,0,1.578-1.071,2.635,2.635,0,0,0,.676-1.86,6.373,6.373,0,0,0-1.8-3.945A50.433,50.433,0,0,1-179-49.195a15.189,15.189,0,0,1-2.029-8.059,19.974,19.974,0,0,1,.789-5.917,15.8,15.8,0,0,1,2.141-4.452,14.648,14.648,0,0,1,3.043-3.212,24.61,24.61,0,0,1,3.381-2.2,18.846,18.846,0,0,1,5.3-1.634,55.578,55.578,0,0,1,8.566-.733l2.254,14.089a27.062,27.062,0,0,0-7.5,1.014q-2.761.9-2.761,3.156,0,1.916,2.818,5.072a44.013,44.013,0,0,1,4.058,5.748,14.836,14.836,0,0,1,1.8,7.664,12.012,12.012,0,0,1-2.029,6.706,10.31,10.31,0,0,1-6.312,4.227,17.115,17.115,0,0,1,6.368,5.016,10.115,10.115,0,0,1,2.085,6.03,14.836,14.836,0,0,1-1.8,7.664,38.392,38.392,0,0,1-4.058,5.635q-2.93,3.607-2.93,5.523A2.461,2.461,0,0,0-164.856,4a7.236,7.236,0,0,0,2.367,1.353,18.007,18.007,0,0,0,3.043.789,17.7,17.7,0,0,0,2.987.282h1.014ZM202.522,6.427h1.014a17.7,17.7,0,0,0,2.987-.282,18.007,18.007,0,0,0,3.043-.789A7.236,7.236,0,0,0,211.933,4a2.461,2.461,0,0,0,.958-1.86q0-1.916-2.93-5.523A38.392,38.392,0,0,1,205.9-9.014a14.836,14.836,0,0,1-1.8-7.664,10.115,10.115,0,0,1,2.085-6.03,17.115,17.115,0,0,1,6.368-5.016,10.31,10.31,0,0,1-6.312-4.227,12.012,12.012,0,0,1-2.029-6.706,14.836,14.836,0,0,1,1.8-7.664,44.013,44.013,0,0,1,4.058-5.748q2.818-3.156,2.818-5.072,0-2.254-2.761-3.156a27.062,27.062,0,0,0-7.5-1.014L204.889-75.4a55.578,55.578,0,0,1,8.566.733,18.846,18.846,0,0,1,5.3,1.634,24.61,24.61,0,0,1,3.381,2.2,14.648,14.648,0,0,1,3.043,3.212,15.8,15.8,0,0,1,2.141,4.452,19.974,19.974,0,0,1,.789,5.917,15.189,15.189,0,0,1-2.029,8.059,50.433,50.433,0,0,1-4.283,6.03,6.373,6.373,0,0,0-1.8,3.945,2.635,2.635,0,0,0,.676,1.86,4.07,4.07,0,0,0,1.578,1.071,17.271,17.271,0,0,0,5.016,1.353,41.589,41.589,0,0,0,5.016.338v13.863q-4.058.451-6.424.9a24.769,24.769,0,0,0-3.607.9q-2.367.564-2.367,2.48a7.442,7.442,0,0,0,1.916,4.17A48.928,48.928,0,0,1,226.022-6.2a15.98,15.98,0,0,1,2.085,8.341,17.939,17.939,0,0,1-.845,5.692,17.969,17.969,0,0,1-2.2,4.508,16.539,16.539,0,0,1-3.043,3.381,15.684,15.684,0,0,1-3.381,2.2q-4.4,2.141-13.751,2.254Z" transform="translate(616.461 131.611)" fill="#fff"/><path d="M223.088,85.7a25.493,25.493,0,0,1-7.326-1.014,15.43,15.43,0,0,1-5.861-3.212,15.915,15.915,0,0,1-3.945-5.467,19.3,19.3,0,0,1-1.465-7.889,14.435,14.435,0,0,1,2.254-8.34,16.336,16.336,0,0,1,5.861-5.185,26.2,26.2,0,0,1,8.059-2.649,54.636,54.636,0,0,1,8.848-.733c.823,0,1.619.019,2.367.057s1.537.093,2.366.169V62.595a15.428,15.428,0,0,0-1.916-.113H230.3a22.308,22.308,0,0,0-7.946,1.24,4.458,4.458,0,0,0-3.212,4.4c0,2.018.531,3.327,1.578,3.889a8.882,8.882,0,0,0,4.171.845,22.912,22.912,0,0,0,4.677-.508,37.168,37.168,0,0,0,4.677-1.3V83.671A29.917,29.917,0,0,1,223.088,85.7Zm-135.251,0a25.5,25.5,0,0,1-7.327-1.014,15.43,15.43,0,0,1-5.861-3.212A15.924,15.924,0,0,1,70.7,76.007a19.3,19.3,0,0,1-1.465-7.889,14.435,14.435,0,0,1,2.255-8.34,16.346,16.346,0,0,1,5.861-5.185,26.214,26.214,0,0,1,8.059-2.649,54.636,54.636,0,0,1,8.848-.733c.823,0,1.619.019,2.367.057s1.536.093,2.367.169V62.595a15.448,15.448,0,0,0-1.916-.113H95.05a22.3,22.3,0,0,0-7.945,1.24,4.458,4.458,0,0,0-3.213,4.4c0,2.019.531,3.327,1.579,3.889a8.881,8.881,0,0,0,4.17.845,22.912,22.912,0,0,0,4.677-.508A37.218,37.218,0,0,0,99,71.048V83.671A29.917,29.917,0,0,1,87.837,85.7Zm238.043-.337h0a117.472,117.472,0,0,1-19.442-1.3c-4.9-.861-8.748-2.435-11.44-4.678a16.727,16.727,0,0,1-5.467-9.129,63.45,63.45,0,0,1-1.409-14.653V47.154H303v8.453a37.411,37.411,0,0,0,.788,8.791A7.131,7.131,0,0,0,307,68.907a15.058,15.058,0,0,0,6.932,1.69c3,.15,7.018.226,11.947.226V85.361Zm-71.12-.451H239.882V48.393a5.975,5.975,0,0,0-2.592-4.9c-1.72-1.309-4.413-1.973-8-1.973a50.022,50.022,0,0,0-10.2,1.071,51.249,51.249,0,0,0-8.96,2.649l-1.916-12.511a41.5,41.5,0,0,1,9.918-3.269,60.934,60.934,0,0,1,12.962-1.353,42.7,42.7,0,0,1,9.185.958,21.471,21.471,0,0,1,7.552,3.155A15.481,15.481,0,0,1,252.9,38.08a20.3,20.3,0,0,1,1.859,9.186Zm-66.837,0h-14.99v-34.6c0-2.842-.8-4.871-2.367-6.03a9.271,9.271,0,0,0-5.636-1.747,16.261,16.261,0,0,0-8.228,2.142V31.149a20.212,20.212,0,0,1,11.5-3.495,19.924,19.924,0,0,1,7.383,1.409,18.988,18.988,0,0,1,6.312,4.114,19.63,19.63,0,0,1,4.4,6.763,25.02,25.02,0,0,1,1.634,9.355Zm-36.857,0h-14.99V4.211h14.99Zm-31.558,0H104.63V48.393a5.975,5.975,0,0,0-2.592-4.9c-1.72-1.309-4.413-1.973-8-1.973a50.035,50.035,0,0,0-10.2,1.071,51.249,51.249,0,0,0-8.96,2.649L72.959,32.727a41.5,41.5,0,0,1,9.918-3.269,60.934,60.934,0,0,1,12.962-1.353,42.711,42.711,0,0,1,9.186.958,21.472,21.472,0,0,1,7.551,3.155,15.476,15.476,0,0,1,5.072,5.861,20.3,20.3,0,0,1,1.859,9.186Zm-66.5,0H38.47V47.717L51.657,34.53a38.246,38.246,0,0,1,.958,4.17,30.5,30.5,0,0,1,.4,5.185Zm-19.161,0H19.309V47.717l14.2-14.2c.671-.671,1.41-1.372,2.2-2.085a29.469,29.469,0,0,1,2.424-1.973,16.3,16.3,0,0,1,2.535-1.522,5.886,5.886,0,0,1,2.536-.619,8.056,8.056,0,0,1,5.523,2.254L33.849,44.448Zm-19.048,0H.261V28.556H14.8v8.228A10.06,10.06,0,0,1,16.21,33.4,15.657,15.657,0,0,1,18.8,30.3a13.456,13.456,0,0,1,3.269-2.254A7.68,7.68,0,0,1,25.4,27.2,6.825,6.825,0,0,1,29.9,29.233L14.8,44.561Z" transform="translate(478 56.283)" fill="#fff" stroke="rgba(0,0,0,0)" stroke-miterlimit="10" stroke-width="1"/><g clip-path="url(#a)"><path d="M-143.5-47.255h14.54v8.228a9.991,9.991,0,0,1,1.409-3.381,15.568,15.568,0,0,1,2.592-3.1,13.388,13.388,0,0,1,3.269-2.254,7.644,7.644,0,0,1,3.325-.845,6.793,6.793,0,0,1,4.508,2.029l-15.1,15.329V9.1H-143.5ZM-124.452,9.1V-28.094l14.2-14.2q1.014-1.014,2.2-2.085a29.3,29.3,0,0,1,2.423-1.972,16.19,16.19,0,0,1,2.536-1.522,5.853,5.853,0,0,1,2.536-.62,8.017,8.017,0,0,1,5.523,2.254l-14.878,14.878V9.1Zm19.161,0V-28.094L-92.1-41.281a38.052,38.052,0,0,1,.958,4.17,30.34,30.34,0,0,1,.394,5.185V9.1Zm66.161,0V-27.418a5.951,5.951,0,0,0-2.592-4.9q-2.592-1.972-8-1.972a49.794,49.794,0,0,0-10.2,1.071,51.057,51.057,0,0,0-8.96,2.649L-70.8-43.084a41.3,41.3,0,0,1,9.918-3.269,60.655,60.655,0,0,1,12.962-1.353,42.522,42.522,0,0,1,9.186.958,21.39,21.39,0,0,1,7.552,3.156,15.4,15.4,0,0,1,5.072,5.861,20.2,20.2,0,0,1,1.86,9.186V9.1ZM-59.869-7.694q0,3.043,1.578,3.888a8.838,8.838,0,0,0,4.17.845,22.821,22.821,0,0,0,4.677-.507,37.231,37.231,0,0,0,4.677-1.3V7.86A29.784,29.784,0,0,1-55.924,9.889a25.391,25.391,0,0,1-7.326-1.014,15.361,15.361,0,0,1-5.861-3.212A15.854,15.854,0,0,1-73.056.2a19.208,19.208,0,0,1-1.465-7.89,14.373,14.373,0,0,1,2.254-8.341,16.274,16.274,0,0,1,5.861-5.185,26.074,26.074,0,0,1,8.059-2.649A54.411,54.411,0,0,1-49.5-24.6q1.24,0,2.367.056t2.367.169v11.158a15.465,15.465,0,0,0-1.916-.113h-2.029a22.194,22.194,0,0,0-7.946,1.24A4.442,4.442,0,0,0-59.869-7.694ZM7.306-71.6V9.1H-7.685V-71.6Zm5.635,26.938a20.124,20.124,0,0,1,11.5-3.494,19.838,19.838,0,0,1,7.382,1.409,18.9,18.9,0,0,1,6.312,4.114,19.528,19.528,0,0,1,4.4,6.763,24.9,24.9,0,0,1,1.634,9.355V9.1H29.171V-25.5q0-4.283-2.367-6.03a9.227,9.227,0,0,0-5.635-1.747,16.194,16.194,0,0,0-8.228,2.141ZM96.121,9.1V-27.418a5.951,5.951,0,0,0-2.592-4.9q-2.592-1.972-8-1.972a49.794,49.794,0,0,0-10.2,1.071,51.057,51.057,0,0,0-8.96,2.649L64.45-43.084a41.3,41.3,0,0,1,9.918-3.269A60.655,60.655,0,0,1,87.33-47.706a42.522,42.522,0,0,1,9.186.958,21.39,21.39,0,0,1,7.552,3.156,15.4,15.4,0,0,1,5.072,5.861A20.2,20.2,0,0,1,111-28.545V9.1ZM75.383-7.694q0,3.043,1.578,3.888a8.838,8.838,0,0,0,4.17.845,22.821,22.821,0,0,0,4.677-.507,37.231,37.231,0,0,0,4.677-1.3V7.86A29.784,29.784,0,0,1,79.327,9.889,25.391,25.391,0,0,1,72,8.875,15.361,15.361,0,0,1,66.14,5.663,15.854,15.854,0,0,1,62.2.2a19.208,19.208,0,0,1-1.465-7.89,14.373,14.373,0,0,1,2.254-8.341,16.274,16.274,0,0,1,5.861-5.185A26.074,26.074,0,0,1,76.9-23.867a54.411,54.411,0,0,1,8.848-.733q1.24,0,2.367.056t2.367.169v11.158a15.464,15.464,0,0,0-1.916-.113H86.541a22.194,22.194,0,0,0-7.946,1.24A4.442,4.442,0,0,0,75.383-7.694Zm49.48-26.6,2.029-12.962h17.47v-8.566l14.878-3.719v12.285h22.655l-2.029,12.962ZM182.119,9.551a116.9,116.9,0,0,1-19.442-1.3q-7.382-1.3-11.44-4.677a16.65,16.65,0,0,1-5.466-9.129A63.115,63.115,0,0,1,144.361-20.2v-8.453h14.878V-20.2a37.206,37.206,0,0,0,.789,8.791A7.1,7.1,0,0,0,163.24-6.9a14.983,14.983,0,0,0,6.932,1.691q4.508.225,11.947.225Z" transform="translate(621.761 132.094)" fill="#9858fa"/></g></g></svg>